# xmcd
#
# Track frame offsets:
#	150
#	15915
#	32867
#	50045
#	67731
#	86320
#	101491
#	114858
#	135119
#	157606
#	175540
#	192923
#	212103
#	230877
#	255067
#	280748
#	297065
#
# Disc length: 4172
#
# Revision: 1
# Processed by: cddbd v1.5.1PL0 Copyright (c) Steve Scherf et al.
# Submitted via: audiograbber 1.83.01
# Normalized: r0:TDELIM( - )
#
DISCID=c9104a11
DTITLE=Chartbusters Vol. 3 - 90's Country Disc 4
DYEAR=1900
DGENRE=Karaoke Country
TTITLE0=Tracy Byrd - When Mama Ain't Happy
TTITLE1=Andy Griggs - You Won't Ever Be Lonely
TTITLE2=Dixie Chicks - You Were Mine
TTITLE3=Garth Brooks - Two Pina Coladas
TTITLE4=Lonestar - Amazed
TTITLE5=LeAnn Rimes - Big Deal
TTITLE6=Yankee Grey - All Things Considered
TTITLE7=Mark Wills - Back At One
TTITLE8=Dixie Chicks - Cowboy Take Me Away
TTITLE9=Collin Raye - Anyone Else
TTITLE10=Kenny Rogers - Buy Me A Rose
TTITLE11=Faith Hill - Breathe
TTITLE12=Phil Vassar - Carlene
TTITLE13=Clay Walker - The Chain Of Love
TTITLE14=Dixie Chicks - Cold Day In July
TTITLE15=George Jones - Choices
TTITLE16=Alabama - God Must Have Spent A Little More Time On You
EXTD=
EXTT0=
EXTT1=
EXTT2=
EXTT3=
EXTT4=
EXTT5=
EXTT6=
EXTT7=
EXTT8=
EXTT9=
EXTT10=
EXTT11=
EXTT12=
EXTT13=
EXTT14=
EXTT15=
EXTT16=
PLAYORDER=
